# xmcd CD database file
# Copyright (C) 1993-1997  Ti Kan
#
# Track frame offsets:
#	150
#	12117
#	24155
#	37285
#	49287
#	61470
#	74980
#	88100
#	101242
#	120850
#	132612
#	145480
#
# Disc length: 2096 seconds
#
# Revision: 4
# Processed by: cddbd v1.4b41PL1 Copyright (c) Steve Scherf et al.
# Submitted via: xmcd 2.1 PL1
#
DISCID=b7082e0c
DTITLE=Major Dundee - Indian Summer
DYEAR=1900
DGENRE=
TTITLE0=YOU KNOW ME
TTITLE1=SLEEPLESS NIGHTIN'
TTITLE2=CAN I DREAM ABOUT YOU TONIGHT
TTITLE3=LA LINDA
TTITLE4=BIGWHEELS
TTITLE5=I HEARD IT ON THE RADIO
TTITLE6=LEAVES IN THE WIND
TTITLE7=BIG BRENDA
TTITLE8=THE CORNER OF THE WORLD
TTITLE9=I'D BE BETTER OFF ALONE
TTITLE10=HEARTLESS
TTITLE11=THE NICKEL SONG
EXTD=Entry send in at Jan. 21, 1997 by:\nHugo van der Kooij <hvdkooij@
EXTD=caiw.nl>\n
EXTT0=
EXTT1=
EXTT2=
EXTT3=
EXTT4=
EXTT5=
EXTT6=
EXTT7=
EXTT8=
EXTT9=
EXTT10=
EXTT11=
PLAYORDER=
